<?xml version="1.0"?><svg width="309.125" height="421.4625" xmlns="http://www.w3.org/2000/svg">
 <metadata id="metadata15477">image/svg+xml</metadata>

 <g>
  <title>Layer 1</title>
  <g transform="matrix(1.25, 0, 0, -1.25, 0, 421.462)" id="g15479">
   <g transform="scale(0.24)" id="g15481">
    <path fill="#000000" fill-rule="nonzero" id="path15483" d="m233.457001,288.089996c4.710999,-1.539001 -0.832001,8.125 -0.125,12.542999c28.125,14.960999 25.042999,61.082001 58.335999,70.835999c1.082001,12.789001 9.039001,18.75 12.5,29.164001c16.5,-3.335999 24.039001,2.792999 37.5,8.335999c2.625,1.082001 13.125,1.789001 16.664001,4.164001c13.917999,9.332001 14.957001,21.417999 25,33.335999c-8.457001,15.414001 2.835999,24.789001 0,45.832001c18.75,-2.082001 14.167999,19.164001 33.335999,16.667999c-0.710999,10.414001 6.414001,13.039001 12.5,16.664001c-0.875,10.417969 4.582001,18.5 8.332001,29.167969c2.082001,6 6.457001,13.332031 8.332001,20.832031c2.167999,8.710999 4.960999,13.5 8.335999,20.835999c2.832001,6.164001 3.246002,15.539001 8.332001,25c1.25,2.370972 7.457001,6.33197 8.332001,8.33197c1.003998,2.29303 -0.625,5.871033 0,8.332031c1.542999,6.125 10.417999,28.95697 0,45.835999c-26.832001,-10.460999 -41.789001,9.164001 -62.5,16.664001c-3.832001,4.45697 0.125,13.625 -4.164001,20.835999c-1.960999,3.33197 -10.835999,5.08197 -12.5,8.33197c-2.710999,5.289001 -5.042999,23.164001 -8.335999,29.164001c-1.207001,2.210999 -3.75,-0.45697 -4.164001,4.16803c-0.460999,5.167969 2.121002,12.58197 4.164001,20.83197c4.335999,17.585999 5.625,28.710999 20.835999,37.5c0.082001,9.835999 -7.167999,12.25 -4.167999,25c7.917999,1.79303 10.457001,8.957031 20.832001,8.335999c1.082001,12.207031 -9.414001,12.79303 -8.332001,25c16.667999,6.957031 17.082001,30.125 45.832001,25c14.625,1.125 -7.539001,18.457031 4.167999,16.664001c-3.125,15.625 15.914001,9.085999 16.667999,20.835999c3.039001,11.375 -8.292999,8.375 -8.335999,16.664001c-3.039001,11.375 8.292999,8.379028 8.335999,16.66803c-1.585999,6.58197 -7.75,10.125 -8.335999,16.667969c-0.625,6.664001 3.25,7.289001 4.167999,12.499023c2.332001,13.289978 -0.75,25.000061 4.167999,41.659973c0.371002,1.26001 3.957001,0.219971 4.164001,4.170044c0.167999,3.209961 3.625,4.459961 4.167999,8.329956c1.667999,11.630005 -6.917999,21.090088 0,29.170044c-17,24.670044 -38.664001,44.670044 -54.167999,70.829956c-22.375,5.420044 -40.164001,15.380005 -70.832001,12.5c-7.207001,0 -8.625,4.920044 -12.5,8.340088c-2.835999,2.5 -6.917999,4.379883 -8.332001,8.329956c-11,1.049927 -18.210999,-1.369995 -29.167999,0c-8.5,1.089966 -17.457001,7.25 -25,8.329956c-19.082001,2.719971 -36,-2.119995 -54.167999,4.170044c-1.539001,0.549927 0,3.959961 -4.164001,4.170044c-1.125,0.039917 -3.167999,-0.420044 -4.167999,0c-3.707001,1.459961 -15.664001,4.709961 -25,8.329956c-1.710999,0.670044 0.167999,3.959961 -4.167999,4.170044c-1.125,0.039917 -3.164001,-0.420044 -4.164001,0c-2.542999,1.039917 -3.375,3.879883 -4.167999,4.159912c-6.917999,2.5 -14.832001,2.630005 -20.832001,4.170044c-1.042999,0.25 -0.375,3.959961 -4.167999,4.170044c-9.625,0.5 -12.417999,0.789917 -20.832001,4.159912c-1.75,0.710083 -16.460999,3.920044 -20.835999,8.340088c-15,-10 -16.664001,-33.340088 -29.164001,-45.840088c-10.042999,1.719971 -9.042999,-7.619995 -20.835999,-4.159912c-7.332001,-3.790039 -7.625,-14.590088 -12.5,-20.840088c-10.0429,1.719971 -9.039001,-7.619995 -20.832001,-4.159912c-12.957001,-5.120117 -16.75,-19.370117 -37.5,-16.670044c2.66797,3.549927 0.875,13.959961 4.16797,16.670044c6.95703,5.709961 2,15.5 8.33203,25c3.043,4.539917 5.582001,7.579956 8.332001,12.5c3.5,6.209961 5.835999,17.459961 8.335999,20.829956c2.664001,3.589966 11.4179,7.25 16.664001,12.5c4.960999,4.959961 8.792999,14.170044 12.5,16.670044c5.003899,3.379883 10.792999,1.75 16.667999,4.159912c1.792999,0.75 -0.25,3.920044 4.167999,4.170044c11.25,0.579956 20.664001,8.829956 33.332001,16.670044c26.332001,-6.120117 59.957001,-6.040039 91.667999,-8.340088c6.664001,-0.48999 7.125,-3.48999 12.5,-4.159912c23.625,-2.830078 47.375,3.539917 66.664001,0c10.085999,-1.840088 20.875,-8.460083 29.167999,-12.5c14.542999,-2.710083 22.75,8.629883 41.667999,4.159912c9.375,-2.199951 10.25,-3.369995 29.164001,0c11.5,2.050049 19.085999,10.630005 33.335999,8.340088c16.207001,-0.620117 18.25,-8.790039 37.5,-12.5c19.039001,9.289917 56.5,33.209961 79.163971,12.5c5.46106,4.25 15.375,4.079956 20.83606,8.329956c6.70697,0.920044 2.042969,10.959961 4.16394,16.670044c0.625,1.709961 8.129028,7.289917 8.33606,8.329956c1.5,7.75 -4.33606,12.579956 -4.16803,20.829956c0,-0.829956 4.04303,1.840088 4.16803,4.170044c0.53894,10.549927 -0.754028,20.299927 4.16394,29.170044c1.21106,2.209961 3.91803,-0.540039 4.16803,4.159912c0.58197,10.880005 7.83197,7.420044 8.33197,16.670044c0.46106,8.670044 9.79303,1.670044 16.66803,8.329956c2.75,2.670044 0.914001,10.300049 4.16803,12.5c3.870972,0.920044 8.66394,-1.159912 12.5,0c4.292969,1.300049 10.08197,2.170044 16.66394,4.170044c1.79303,0.549927 4.79303,4.170044 4.207031,4.170044c6.835999,0.709961 7.004028,-4 12.460999,-4.170044c4.460999,-0.119995 8.039001,4.209961 8.33197,4.170044c3.41803,-0.290039 6.96106,-3.590088 12.5,-4.170044c9.297058,-0.950073 12.83606,-0.369995 20.83606,-4.170044c2,-0.949951 -0.41803,-3.909912 4.16394,-4.159912c5.16803,-0.290039 7.16803,-6.340088 12.5,-12.5c2.457031,-2.830078 3.207031,-8.340088 8.33606,-8.340088c8.08197,0 0.245972,-12.75 4.16394,-16.659912c0.33606,-0.340088 4.04303,0.409912 4.16803,0c1.04303,-3.670044 -1.5,-9.040039 0,-12.5c0.79303,-1.840088 3.70697,0.129883 4.16803,-4.170044c0.70697,-6.700073 -3.375,-9.540039 -4.16803,-16.670044c-1.58197,-14.030029 -2.45697,-29.280029 -4.16803,-45.829956c2.96106,-15.119995 30.375,-5.75 45.835999,-8.329956c8.207031,3.329956 9.375,-7.290039 12.5,-8.340088c5,-1.659912 11.625,1.550049 16.664001,0c1.710999,-0.530029 7.332031,-8.159912 8.335999,-8.329956c6.707031,-1.200073 7.164001,3.959961 12.5,4.170044c-12.292969,14.129883 -33.414001,19.379883 -41.667969,37.5c-7.75,0.579956 -13.914001,2.75 -16.66803,8.329956c-3.870972,4.459961 -15.375,1.299927 -12.5,12.5c10.75,6.709961 34.625,-2.329956 41.66803,-12.5c3.04303,0.299927 2.5,7.380005 0,12.5c-1.25,2.579956 -7.33197,6.170044 -8.33197,8.329956c-3.96106,8.380005 -6.172058,17.5 -8.33606,25c-3.370972,3.590088 -11.417969,2.469971 -12.5,8.340088c1.29303,14 13.91803,16.629883 25,20.829956c-3.125,-15.619995 15.91803,-9.079956 16.66803,-20.829956c9.835999,0.079956 12.25,-7.170044 25,-4.170044c9.917969,-12.329956 24.625,-19.829956 37.5,-29.170044c5,-14.329956 9.042969,-27.329956 16.667969,-37.5c26.66803,-35.530029 84.375,-40.829956 125.002014,-62.5c3.330017,-7.780029 6.960022,-15.23999 8.330017,-25c3.159973,-12.079956 19.75,-10.780029 16.670044,-29.159912c5.409912,-12.620117 -8.290039,-7.340088 -12.500061,-12.5c-0.5,-0.580078 0.619995,-3.790039 0,-4.170044c-1.539978,-0.910034 -7.26001,1.339966 -8.339966,0c-0.410034,-0.5 0.5,-3.920044 0,-4.170044c-1.5,-0.699951 -7.330017,1.219971 -8.330017,0c-4.5,-5.5 -8.539001,-1.75 -16.66803,-4.159912c-10.335999,-3.080078 -19.58197,-11.580078 -41.664001,-8.340088c-6.378967,0.920044 -13.128967,7.630005 -20.835999,8.340088c-7.164001,0.669922 -9.08197,-3.870117 -16.664001,-4.170044c-9.335999,-0.329956 -12.835999,5.959961 -29.167969,4.170044c-7.5,-0.830078 -17.582031,-3.620117 -25,-8.340088c-6.125,-3.909912 -22.875,-2.73999 -33.332031,-8.329956c-7.875,-0.450073 -2.878967,-13.790039 -12.5,-12.5c-0.5,-19.329956 0.960999,-26.329956 -4.167969,-41.670044c-0.5,-1.449951 -3.960999,-0.030029 -4.16803,-4.159912c-0.33197,-6 -4.45697,-27.540039 -8.33197,-33.340088c-5.789001,-8.659912 -8.75,-20.949951 -8.332031,-37.494995c-4.042969,-0.125 -3.253967,-5.08197 -4.167969,-8.33197c-14,-4.039001 -20.79303,-15.332031 -29.16803,-25c10.879028,-10.375 0.41803,-23.707031 -4.164001,-37.5c-2.83197,-8.457031 -2.003967,-18.539001 -4.167969,-25c-0.5,-1.5 -3.960999,-0.04303 -4.16803,-4.16803c-0.164001,-3.45697 -5.914001,-6.667969 -4.164001,-12.5c-12.917969,-6.5 -21.875,-17.039001 -33.335999,-25c-10.995972,-38.789001 23.754028,-52.875 16.66803,-100c6.792969,-11.245972 16.292969,-19.83197 29.167969,-25c4.207031,-20.039001 21.539001,-27.914001 20.832031,-45.83197c0.039001,0.710999 -4.039001,-1.707031 -4.16803,-4.164001c-0.414001,-8.29303 -2.164001,-12.41803 -8.33197,-20.835999c-7.539001,-10.29303 -24.164001,-24.582031 -33.332031,-37.5c-49.125,-5.039001 -57.917969,-50.41803 -104.167969,-58.332031c-7.457031,-17.753967 -14.957031,-37.960999 -25,-54.167969c-1.414001,-2.292999 -3.91803,0.625 -4.16803,-4.164001c-0.245972,-5.085999 -8.039001,-10.042999 -12.5,-16.667999c-3.039001,-4.542999 -5.664001,-7.542999 -8.33197,-12.5c-13.625,-25.210999 -42.54303,-49.625 -70.832001,-66.667999c3.875,-6.542999 -3.917999,-11 -4.167999,-12.5c-5.375,-30.707001 4,-66.082001 12.5,-87.5c-4.207001,-3.125 -8.210999,-5.125 -12.5,-8.332001c-9.25,-6.917999 -8.75,-9.039001 -20.832001,0c-3.25,2.457001 -7.792999,3.207001 -8.335999,8.332001c-8.082001,-1.25 -13.539001,-4.292999 -20.832001,0c-0.25,0.167999 3.917999,5.710999 4.167999,7.875c-0.335999,-0.539001 -3.792999,3.960999 -4.207001,4.625c-0.042999,0.082001 -0.042999,0.082001 -0.042999,0.082001c-2.753998,2.625 -10.585999,2.878998 -8.25,-0.082001c-0.460999,0.582001 -8.292999,4.042999 -8.335999,4.167999c-0.875,5.082001 9.167999,8.5 0,16.667999c-22.542999,-2.460999 -30.207001,-19.792999 -33.332001,-41.667999c-10.082001,-0.25 -11.457001,-10.417999 -16.667999,-16.667999c-3.914001,-4.75 -17.582001,-8.289001 -12.5,-20.832001c-2.789001,-4 -16.871002,0.664001 -20.832001,-4.167999c-0.167999,-0.210999 -15.792999,-13.585999 -16.667999,-12.5c-9.664001,12.082001 5.667999,-13.625 -8.332001,0c-6.042999,-1.832001 0.417999,-3.664001 0,-8.332001c-13.792999,-1.460999 -18.082001,-12.457001 -25,-20.832001c-6.75,-1.167999 -7.167999,3.953003 -12.5,4.164001c4.667999,-5.332001 2.289001,-5.332001 0,-8.332001c-1.292999,-1.667999 -6.667999,-6.917999 -8.332001,-8.332001c-3.292999,-2.792999 -8.707001,-1.335999 -12.500015,-4.167999c0,2.332001 -3.375,4.75 -4.167999,0c-12.292999,-5.75 -16.875,-19.25 -29.167999,-25c-1.625,-4.542999 -5,-10 0,-4.167999c12,5.625 16.628998,18.585999 28.25,24.5c-8.746002,-9 -20.289001,-24.917999 -28.25,-32.832001c-6.75,-1.167999 -7.167999,3.957001 -12.5,4.167999c4.835999,-6.167999 4.835999,-10.503998 0,-16.667999c-7.875,-3.125 -2.875,-12.417999 -12.5,-4.167999c4.917999,-12.582001 10.167999,-24.832008 4.167999,-37.500008c-10.417999,-6.039001 -16.375,-10.082001 -29.167999,-4.164001c-14.082001,-13.711197 -9.957001,-45.625198 -25,-58.336197c1.375,-19.414 -3.246002,-32.875 -8.332001,-45.83202c-4.835999,0.66406 -7.414001,-0.91797 -8.332001,-4.16796c-21.167984,-5.70703 -23.249985,29.28909 -37.499985,16.66799c-12.5,2.746099 4,8.914 0,16.667999c-0.835999,15.914001 -10.75,0.082001 -16.667999,8.332001c-2.207001,3.082001 8.25,7.746101 8.332001,8.332001c0.710999,5.75 -5.832001,9.75 -16.664001,8.335999c4.457001,1.082001 1.375,9.706997 4.164001,12.500004c5.003899,4.995995 -2.207001,3.288994 0,12.5c0.2071,0.913994 3.960999,0.453094 4.167999,4.163994c0.039101,1.125 -0.417999,3.167999 0,4.167999c0.707001,1.75 3.917999,16.457207 8.332001,20.832207c0.753899,9.081993 -3.414001,13.25 -12.5,12.5c1.460999,5.456993 7.3321,6.538994 8.335999,12.499992c-1.835999,5.125 -5.3321,8.542999 -12.5,8.335999c1.375,14.75 11.457001,10.25 4.164001,25c16.125,11.625 34.917999,20.664001 54.167999,29.164001c9.5,1.164001 15.664001,-1 16.667999,-8.332001c6.25,0.082001 0.414001,5.042999 0,4.167999c2.75,6.039001 13.875,5.914001 16.664001,16.664001c9.667999,1.332001 16,-0.664001 20.835999,-4.164001c-7.917999,8 5.707001,11.578003 13.875,18.207001c-0.457001,-0.5 -0.917999,-1 -1.375,-1.542999c-2.457001,-2.789001 -9.417999,-8.75 -4.167999,-12.5c0.582001,7.460999 7.414001,6.625 12.5,12.5c12.75,14.667999 4.667999,12.289001 -3.832001,4.542999c2.5,2.832001 7.792999,8.375 8,12.125c0.289001,5.332001 6.957001,5.25 8.332001,8.332001c3.960999,8.789001 -0.039001,6.5 8.332001,4.167999c-11.167999,24.5 11.167999,-3.292999 0,20.832001c2.207001,0.792999 5.625,-6.167999 8.335999,-4.164001c0.332001,0.246002 -6.625,9.375 -4.167999,12.5c0.542999,0.707001 7.457001,-5.917999 8.332001,-4.167999c0.667999,1.332001 -5.246002,8 -4.164001,12.5c0.789001,3.332001 5.375,-4.210999 4.289001,-4.210999zm66.542999,-49.957001c0.25,2.539001 0.625,4.917999 4.167999,4.167999c-3.75,11.292999 -9.335999,-9.542999 -16.667999,-8.332001c-8.792999,-17.207001 5.5,1.582001 12.5,4.164001zm-116.542999,120.792999c5.332001,3.871002 1.582001,2.203003 0,0c-4.375,-3.171997 -5.207001,-3.960999 -8.332001,-8.335999c-5.332001,-3.875 -1.585999,-2.207001 0,0c4.371002,3.167999 5.207001,3.957001 8.332001,8.335999"/>
    <path fill="#000000" fill-rule="nonzero" id="path15485" d="m304.167999,242.300995c-3.542999,0.75 -3.917999,-1.628998 -4.167999,-4.167999c-7,-2.582001 -21.292999,-21.371002 -12.5,-4.164001c7.332001,-1.210999 12.917999,19.625 16.667999,8.332001"/>
    <path fill="#000000" fill-rule="nonzero" id="path15487" d="m254.167999,204.800995c-3.292999,0.707001 -3.835999,-1.335999 -4.128998,-3.664001c-0.328003,-0.335999 -0.664001,-0.667999 -0.957001,-1.003998c-11.621002,-5.914001 -16.25,-18.875 -28.25,-24.5c-5,-5.832001 -1.625,-0.375 0,4.167999c12.292999,5.75 16.875,19.25 29.167999,25c0.792999,4.75 4.167999,2.332001 4.167999,0"/>
    <path fill="#000000" fill-rule="nonzero" id="path15489" d="m250.039001,201.136993c0.292999,2.328003 0.835999,4.371002 4.128998,3.664001c-1.25,-0.960999 -2.667999,-2.210999 -4.128998,-3.664001"/>
    <path fill="#000000" fill-rule="nonzero" id="path15491" d="m250,308.968994c1.582001,2.203003 5.332001,3.871002 0,0l0,0"/>
    <path fill="#000000" fill-rule="nonzero" id="path15493" d="m250.039001,201.136993c0,-0.167999 -0.039001,-0.335999 -0.039001,-0.503998c-0.289001,-0.125 -0.625,-0.292999 -0.917999,-0.5c0.292999,0.335999 0.628998,0.667999 0.957001,1.003998"/>
    <path fill="#000000" fill-rule="nonzero" id="path15495" d="m250,308.968994c-3.125,-4.378998 -3.960999,-5.167999 -8.332001,-8.335999c3.125,4.375 3.957001,5.164001 8.332001,8.335999"/>
    <path fill="#000000" fill-rule="nonzero" id="path15497" d="m241.667999,300.632996c-1.585999,-2.207001 -5.332001,-3.875 0,0l0,0"/>
    <path fill="#000000" fill-rule="nonzero" id="path15499" d="m196.167999,230.175995c8.5,7.746002 16.582001,10.125 3.832001,-4.542999c-5.085999,-5.875 -11.917999,-5.039001 -12.5,-12.5c-5.25,3.75 1.710999,9.710999 4.167999,12.5c0.457001,0.542999 0.917999,1.042999 1.375,1.542999c1.039001,0.789001 2,1.664001 2.789001,2.625c0.085999,0.121002 0.207001,0.25 0.335999,0.375"/>
    <path fill="#000000" fill-rule="nonzero" id="path15501" d="m196.167999,230.175995c-0.128998,-0.125 -0.25,-0.253998 -0.335999,-0.375c-0.789001,-0.960999 -1.75,-1.835999 -2.789001,-2.625c1.039001,1.082001 2.082001,2.085999 3.125,3"/>
    <path fill="#000000" fill-rule="nonzero" id="path15503" d="m722.093994,136.218994c0,-54.851791 -44.465027,-99.320602 -99.323975,-99.320602c-54.85199,0 -99.321045,44.468796 -99.321045,99.320602c0,54.859009 44.469055,99.32399 99.321045,99.32399c54.859009,0 99.323975,-44.464996 99.323975,-99.32399"/>
   </g>
  </g>
 </g>
</svg>